# xmcd
#
# Track frame offsets:
# 150
# 21019
# 45506
# 66286
# 82941
# 104650
# 121254
# 142064
# 161445
# 182018
# 201436
# 212310
#
# Disc length: 3089 seconds
#
# Revision: 0
# Processed by: cddbd v1.5.1PL2 Copyright (c) Steve Scherf et al.
# Submitted via: Audion 3.0.2 (http://www.panic.com/audion/)
#
DISCID=a20c0f0c
DTITLE=Haydn Vitera - Self-titled
DYEAR=1900
DGENRE=
TTITLE0=Todo, Mi Vida
TTITLE1=Otra Vez
TTITLE2=Heaven Tonight
TTITLE3=Ahora Que
TTITLE4=Keep A Candle Burning
TTITLE5=Language Of Love
TTITLE6=I'll Believe It When I See It
TTITLE7=Shoulda Seen It Comin' 
TTITLE8=Damn Your Eyes
TTITLE9=Throwin' The Fight
TTITLE10=La Plaga
TTITLE11=Aqui Estare
EXTD=
EXTT0=
EXTT1=
EXTT2=
EXTT3=
EXTT4=
EXTT5=
EXTT6=
EXTT7=
EXTT8=
EXTT9=
EXTT10=
EXTT11=
PLAYORDER=
